<?xml version="1.0" encoding="UTF-8" standalone="no"?>
<!-- Created with Inkscape (http://www.inkscape.org/) -->

<svg
   width="26.789734mm"
   height="26.789726mm"
   viewBox="0 0 26.789735 26.789727"
   version="1.1"
   id="svg5"
   inkscape:version="1.4 (86a8ad7, 2024-10-11)"
   sodipodi:docname="square-medium.svg"
   xmlns:inkscape="http://www.inkscape.org/namespaces/inkscape"
   xmlns:sodipodi="http://sodipodi.sourceforge.net/DTD/sodipodi-0.dtd"
   xmlns="http://www.w3.org/2000/svg"
   xmlns:svg="http://www.w3.org/2000/svg">
  <sodipodi:namedview
     id="namedview7"
     pagecolor="#292929"
     bordercolor="#111111"
     borderopacity="1"
     inkscape:showpageshadow="false"
     inkscape:pageopacity="0"
     inkscape:pagecheckerboard="false"
     inkscape:deskcolor="#2c2c2c"
     inkscape:document-units="mm"
     showgrid="false"
     showborder="true"
     borderlayer="false"
     shape-rendering="auto"
     inkscape:zoom="5.4021324"
     inkscape:cx="34.060624"
     inkscape:cy="51.646272"
     inkscape:window-width="1920"
     inkscape:window-height="1013"
     inkscape:window-x="-9"
     inkscape:window-y="-9"
     inkscape:window-maximized="1"
     inkscape:current-layer="layer1" />
  <defs
     id="defs2" />
  <g
     inkscape:label="Capa 1"
     inkscape:groupmode="layer"
     id="layer1"
     transform="translate(-16.404173,-148.43125)">
    <path
       id="rect16"
       style="fill:#000000;stroke-width:1.1444;stroke-linecap:round;stroke-linejoin:round;paint-order:stroke fill markers"
       d="M 17.787034 148.43125 C 17.021021 148.43125 16.404173 149.0481 16.404173 149.81411 L 16.404173 154.99881 C 16.404173 155.76482 17.021021 156.38167 17.787034 156.38167 L 22.971731 156.38167 C 23.737744 156.38167 24.354592 155.76482 24.354592 154.99881 L 24.354592 149.81411 C 24.354592 149.0481 23.737744 148.43125 22.971731 148.43125 L 17.787034 148.43125 z M 27.206614 148.43125 C 26.440601 148.43125 25.823753 149.0481 25.823753 149.81411 L 25.823753 154.99881 C 25.823753 155.76482 26.440601 156.38167 27.206614 156.38167 L 32.391828 156.38167 C 33.157841 156.38167 33.774172 155.76482 33.774172 154.99881 L 33.774172 149.81411 C 33.774172 149.0481 33.157841 148.43125 32.391828 148.43125 L 27.206614 148.43125 z M 36.626194 148.43125 C 35.860181 148.43125 35.243333 149.0481 35.243333 149.81411 L 35.243333 154.99881 C 35.243333 155.76482 35.860181 156.38167 36.626194 156.38167 L 41.811408 156.38167 C 42.577421 156.38167 43.193752 155.76482 43.193752 154.99881 L 43.193752 149.81411 C 43.193752 149.0481 42.577421 148.43125 41.811408 148.43125 L 36.626194 148.43125 z M 17.787034 157.85083 C 17.021021 157.85083 16.404173 158.46768 16.404173 159.23369 L 16.404173 164.4189 C 16.404173 165.18492 17.021021 165.80125 17.787034 165.80125 L 22.971731 165.80125 C 23.737744 165.80125 24.354592 165.18492 24.354592 164.4189 L 24.354592 159.23369 C 24.354592 158.46768 23.737744 157.85083 22.971731 157.85083 L 17.787034 157.85083 z M 27.206614 157.85083 C 26.440601 157.85083 25.823753 158.46768 25.823753 159.23369 L 25.823753 164.4189 C 25.823753 165.18492 26.440601 165.80125 27.206614 165.80125 L 32.391828 165.80125 C 33.157841 165.80125 33.774172 165.18492 33.774172 164.4189 L 33.774172 159.23369 C 33.774172 158.46768 33.157841 157.85083 32.391828 157.85083 L 27.206614 157.85083 z M 36.626194 157.85083 C 35.860181 157.85083 35.243333 158.46768 35.243333 159.23369 L 35.243333 164.4189 C 35.243333 165.18492 35.860181 165.80125 36.626194 165.80125 L 41.811408 165.80125 C 42.577421 165.80125 43.193752 165.18492 43.193752 164.4189 L 43.193752 159.23369 C 43.193752 158.46768 42.577421 157.85083 41.811408 157.85083 L 36.626194 157.85083 z M 17.787034 167.27041 C 17.021021 167.27041 16.404173 167.88726 16.404173 168.65327 L 16.404173 173.83848 C 16.404173 174.6045 17.021021 175.22083 17.787034 175.22083 L 22.971731 175.22083 C 23.737744 175.22083 24.354592 174.6045 24.354592 173.83848 L 24.354592 168.65327 C 24.354592 167.88726 23.737744 167.27041 22.971731 167.27041 L 17.787034 167.27041 z M 27.206614 167.27041 C 26.440601 167.27041 25.823753 167.88726 25.823753 168.65327 L 25.823753 173.83848 C 25.823753 174.6045 26.440601 175.22083 27.206614 175.22083 L 32.391828 175.22083 C 33.157841 175.22083 33.774172 174.6045 33.774172 173.83848 L 33.774172 168.65327 C 33.774172 167.88726 33.157841 167.27041 32.391828 167.27041 L 27.206614 167.27041 z M 36.626194 167.27041 C 35.860181 167.27041 35.243333 167.88726 35.243333 168.65327 L 35.243333 173.83848 C 35.243333 174.6045 35.860181 175.22083 36.626194 175.22083 L 41.811408 175.22083 C 42.577421 175.22083 43.193752 174.6045 43.193752 173.83848 L 43.193752 168.65327 C 43.193752 167.88726 42.577421 167.27041 41.811408 167.27041 L 36.626194 167.27041 z " />
  </g>
</svg>
