<?xml version="1.0" encoding="UTF-8" standalone="no"?>
<!-- Created with Inkscape (http://www.inkscape.org/) -->

<svg
   width="26.789734mm"
   height="26.789726mm"
   viewBox="0 0 26.789735 26.789727"
   version="1.1"
   id="svg5"
   inkscape:version="1.4 (86a8ad7, 2024-10-11)"
   sodipodi:docname="square-big.svg"
   xmlns:inkscape="http://www.inkscape.org/namespaces/inkscape"
   xmlns:sodipodi="http://sodipodi.sourceforge.net/DTD/sodipodi-0.dtd"
   xmlns="http://www.w3.org/2000/svg"
   xmlns:svg="http://www.w3.org/2000/svg">
  <sodipodi:namedview
     id="namedview7"
     pagecolor="#292929"
     bordercolor="#111111"
     borderopacity="1"
     inkscape:showpageshadow="false"
     inkscape:pageopacity="0"
     inkscape:pagecheckerboard="false"
     inkscape:deskcolor="#2c2c2c"
     inkscape:document-units="mm"
     showgrid="false"
     showborder="true"
     borderlayer="false"
     shape-rendering="auto"
     inkscape:zoom="5.4021324"
     inkscape:cx="34.060624"
     inkscape:cy="51.646272"
     inkscape:window-width="1920"
     inkscape:window-height="1013"
     inkscape:window-x="-9"
     inkscape:window-y="-9"
     inkscape:window-maximized="1"
     inkscape:current-layer="layer1" />
  <defs
     id="defs2" />
  <g
     inkscape:label="Capa 1"
     inkscape:groupmode="layer"
     id="layer1"
     transform="translate(-16.404173,-148.43125)">
    <path
       id="rect8"
       style="fill:#000000;stroke-width:1.765;stroke-linecap:round;stroke-linejoin:round;paint-order:stroke fill markers"
       d="M 18.536859 148.43125 C 17.355446 148.43125 16.404173 149.38252 16.404173 150.56394 L 16.404173 158.56086 C 16.404173 159.74228 17.355446 160.69303 18.536859 160.69303 L 26.533787 160.69303 C 27.7152 160.69303 28.665957 159.74228 28.665957 158.56086 L 28.665957 150.56394 C 28.665957 149.38252 27.7152 148.43125 26.533787 148.43125 L 18.536859 148.43125 z M 33.064655 148.43125 C 31.883242 148.43125 30.931968 149.38252 30.931968 150.56394 L 30.931968 158.56086 C 30.931968 159.74228 31.883242 160.69303 33.064655 160.69303 L 41.061583 160.69303 C 42.242996 160.69303 43.193752 159.74228 43.193752 158.56086 L 43.193752 150.56394 C 43.193752 149.38252 42.242996 148.43125 41.061583 148.43125 L 33.064655 148.43125 z M 18.536859 162.95905 C 17.355446 162.95905 16.404173 163.91032 16.404173 165.09173 L 16.404173 173.08866 C 16.404173 174.27007 17.355446 175.22083 18.536859 175.22083 L 26.533787 175.22083 C 27.7152 175.22083 28.665957 174.27007 28.665957 173.08866 L 28.665957 165.09173 C 28.665957 163.91032 27.7152 162.95905 26.533787 162.95905 L 18.536859 162.95905 z M 33.064655 162.95905 C 31.883242 162.95905 30.931968 163.91032 30.931968 165.09173 L 30.931968 173.08866 C 30.931968 174.27007 31.883242 175.22083 33.064655 175.22083 L 41.061583 175.22083 C 42.242996 175.22083 43.193752 174.27007 43.193752 173.08866 L 43.193752 165.09173 C 43.193752 163.91032 42.242996 162.95905 41.061583 162.95905 L 33.064655 162.95905 z " />
  </g>
</svg>
