<?xml version="1.0" encoding="UTF-8" standalone="no"?>
<!-- Created with Inkscape (http://www.inkscape.org/) -->

<svg
   width="26.789734mm"
   height="26.789726mm"
   viewBox="0 0 26.789735 26.789727"
   version="1.1"
   id="svg5"
   inkscape:version="1.4 (86a8ad7, 2024-10-11)"
   sodipodi:docname="square-small.svg"
   xmlns:inkscape="http://www.inkscape.org/namespaces/inkscape"
   xmlns:sodipodi="http://sodipodi.sourceforge.net/DTD/sodipodi-0.dtd"
   xmlns="http://www.w3.org/2000/svg"
   xmlns:svg="http://www.w3.org/2000/svg">
  <sodipodi:namedview
     id="namedview7"
     pagecolor="#292929"
     bordercolor="#111111"
     borderopacity="1"
     inkscape:showpageshadow="false"
     inkscape:pageopacity="0"
     inkscape:pagecheckerboard="false"
     inkscape:deskcolor="#2c2c2c"
     inkscape:document-units="mm"
     showgrid="false"
     showborder="true"
     borderlayer="false"
     shape-rendering="auto"
     inkscape:zoom="5.4021324"
     inkscape:cx="34.060624"
     inkscape:cy="51.646272"
     inkscape:window-width="1920"
     inkscape:window-height="1013"
     inkscape:window-x="-9"
     inkscape:window-y="-9"
     inkscape:window-maximized="1"
     inkscape:current-layer="layer1" />
  <defs
     id="defs2" />
  <g
     inkscape:label="Capa 1"
     inkscape:groupmode="layer"
     id="layer1"
     transform="translate(-16.404173,-148.43125)">
    <path
       id="rect26"
       style="fill:#000000;stroke-width:0.846694;stroke-linecap:round;stroke-linejoin:round;paint-order:stroke fill markers"
       d="M 17.427366 148.43125 C 16.860626 148.43125 16.404173 148.8877 16.404173 149.45444 L 16.404173 153.29038 C 16.404173 153.85712 16.860626 154.31358 17.427366 154.31358 L 21.263308 154.31358 C 21.830048 154.31358 22.286501 153.85712 22.286501 153.29038 L 22.286501 149.45444 C 22.286501 148.8877 21.830048 148.43125 21.263308 148.43125 L 17.427366 148.43125 z M 24.39645 148.43125 C 23.82971 148.43125 23.373257 148.8877 23.373257 149.45444 L 23.373257 153.29038 C 23.373257 153.85712 23.82971 154.31358 24.39645 154.31358 L 28.232392 154.31358 C 28.799131 154.31358 29.255585 153.85712 29.255585 153.29038 L 29.255585 149.45444 C 29.255585 148.8877 28.799131 148.43125 28.232392 148.43125 L 24.39645 148.43125 z M 31.365534 148.43125 C 30.798794 148.43125 30.34234 148.8877 30.34234 149.45444 L 30.34234 153.29038 C 30.34234 153.85712 30.798794 154.31358 31.365534 154.31358 L 35.201992 154.31358 C 35.768732 154.31358 36.224669 153.85712 36.224669 153.29038 L 36.224669 149.45444 C 36.224669 148.8877 35.768732 148.43125 35.201992 148.43125 L 31.365534 148.43125 z M 38.334617 148.43125 C 37.767877 148.43125 37.311424 148.8877 37.311424 149.45444 L 37.311424 153.29038 C 37.311424 153.85712 37.767877 154.31358 38.334617 154.31358 L 42.171076 154.31358 C 42.737816 154.31358 43.193752 153.85712 43.193752 153.29038 L 43.193752 149.45444 C 43.193752 148.8877 42.737816 148.43125 42.171076 148.43125 L 38.334617 148.43125 z M 17.427366 155.40033 C 16.860626 155.40033 16.404173 155.85679 16.404173 156.42353 L 16.404173 160.25947 C 16.404173 160.82621 16.860626 161.28266 17.427366 161.28266 L 21.263308 161.28266 C 21.830048 161.28266 22.286501 160.82621 22.286501 160.25947 L 22.286501 156.42353 C 22.286501 155.85679 21.830048 155.40033 21.263308 155.40033 L 17.427366 155.40033 z M 24.39645 155.40033 C 23.82971 155.40033 23.373257 155.85679 23.373257 156.42353 L 23.373257 160.25947 C 23.373257 160.82621 23.82971 161.28266 24.39645 161.28266 L 28.232392 161.28266 C 28.799131 161.28266 29.255585 160.82621 29.255585 160.25947 L 29.255585 156.42353 C 29.255585 155.85679 28.799131 155.40033 28.232392 155.40033 L 24.39645 155.40033 z M 31.365534 155.40033 C 30.798794 155.40033 30.34234 155.85679 30.34234 156.42353 L 30.34234 160.25947 C 30.34234 160.82621 30.798794 161.28266 31.365534 161.28266 L 35.201992 161.28266 C 35.768732 161.28266 36.224669 160.82621 36.224669 160.25947 L 36.224669 156.42353 C 36.224669 155.85679 35.768732 155.40033 35.201992 155.40033 L 31.365534 155.40033 z M 38.334617 155.40033 C 37.767877 155.40033 37.311424 155.85679 37.311424 156.42353 L 37.311424 160.25947 C 37.311424 160.82621 37.767877 161.28266 38.334617 161.28266 L 42.171076 161.28266 C 42.737816 161.28266 43.193752 160.82621 43.193752 160.25947 L 43.193752 156.42353 C 43.193752 155.85679 42.737816 155.40033 42.171076 155.40033 L 38.334617 155.40033 z M 17.427366 162.36942 C 16.860626 162.36942 16.404173 162.82587 16.404173 163.39261 L 16.404173 167.22907 C 16.404173 167.79581 16.860626 168.25175 17.427366 168.25175 L 21.263308 168.25175 C 21.830048 168.25175 22.286501 167.79581 22.286501 167.22907 L 22.286501 163.39261 C 22.286501 162.82587 21.830048 162.36942 21.263308 162.36942 L 17.427366 162.36942 z M 24.39645 162.36942 C 23.82971 162.36942 23.373257 162.82587 23.373257 163.39261 L 23.373257 167.22907 C 23.373257 167.79581 23.82971 168.25175 24.39645 168.25175 L 28.232392 168.25175 C 28.799131 168.25175 29.255585 167.79581 29.255585 167.22907 L 29.255585 163.39261 C 29.255585 162.82587 28.799131 162.36942 28.232392 162.36942 L 24.39645 162.36942 z M 31.365534 162.36942 C 30.798794 162.36942 30.34234 162.82587 30.34234 163.39261 L 30.34234 167.22907 C 30.34234 167.79581 30.798794 168.25175 31.365534 168.25175 L 35.201992 168.25175 C 35.768732 168.25175 36.224669 167.79581 36.224669 167.22907 L 36.224669 163.39261 C 36.224669 162.82587 35.768732 162.36942 35.201992 162.36942 L 31.365534 162.36942 z M 38.334617 162.36942 C 37.767877 162.36942 37.311424 162.82587 37.311424 163.39261 L 37.311424 167.22907 C 37.311424 167.79581 37.767877 168.25175 38.334617 168.25175 L 42.171076 168.25175 C 42.737816 168.25175 43.193752 167.79581 43.193752 167.22907 L 43.193752 163.39261 C 43.193752 162.82587 42.737816 162.36942 42.171076 162.36942 L 38.334617 162.36942 z M 17.427366 169.3385 C 16.860626 169.3385 16.404173 169.79495 16.404173 170.36169 L 16.404173 174.19815 C 16.404173 174.76489 16.860626 175.22083 17.427366 175.22083 L 21.263308 175.22083 C 21.830048 175.22083 22.286501 174.76489 22.286501 174.19815 L 22.286501 170.36169 C 22.286501 169.79495 21.830048 169.3385 21.263308 169.3385 L 17.427366 169.3385 z M 24.39645 169.3385 C 23.82971 169.3385 23.373257 169.79495 23.373257 170.36169 L 23.373257 174.19815 C 23.373257 174.76489 23.82971 175.22083 24.39645 175.22083 L 28.232392 175.22083 C 28.799131 175.22083 29.255585 174.76489 29.255585 174.19815 L 29.255585 170.36169 C 29.255585 169.79495 28.799131 169.3385 28.232392 169.3385 L 24.39645 169.3385 z M 31.365534 169.3385 C 30.798794 169.3385 30.34234 169.79495 30.34234 170.36169 L 30.34234 174.19815 C 30.34234 174.76489 30.798794 175.22083 31.365534 175.22083 L 35.201992 175.22083 C 35.768732 175.22083 36.224669 174.76489 36.224669 174.19815 L 36.224669 170.36169 C 36.224669 169.79495 35.768732 169.3385 35.201992 169.3385 L 31.365534 169.3385 z M 38.334617 169.3385 C 37.767877 169.3385 37.311424 169.79495 37.311424 170.36169 L 37.311424 174.19815 C 37.311424 174.76489 37.767877 175.22083 38.334617 175.22083 L 42.171076 175.22083 C 42.737816 175.22083 43.193752 174.76489 43.193752 174.19815 L 43.193752 170.36169 C 43.193752 169.79495 42.737816 169.3385 42.171076 169.3385 L 38.334617 169.3385 z " />
  </g>
</svg>
